<svg xmlns="http://www.w3.org/2000/svg" height="48" viewBox="0 96 960 960" width="48" fill="white">
  <path d="M216 797q64-41 127.545-61.5 63.546-20.5 136.5-20.5Q553 715 616.5 735.5 680 756 746 797q43-56 60-109t17-112q0-146-98.5-244.5T480 233q-146 0-244.5 98.5T137 576q0 59 17.5 112T216 797Zm263.854-179Q417 618 374 574.854q-43-43.145-43-106Q331 406 374.146 363q43.145-43 106-43Q543 320 586 363.146q43 43.145 43 106Q629 532 585.854 575q-43.145 43-106 43Zm-.42 374q-84.985 0-161.276-32.974-76.29-32.973-132.724-90Q129 812 96.5 736.659 64 661.319 64 575.5q0-85.819 33.21-161.285 33.211-75.467 89.965-132.078 56.754-56.611 132.13-89.374T480.5 160q85.819 0 161.166 33.24t131.632 89.58q56.286 56.34 89.494 131.839T896 575.734q0 85.734-32.763 161.035-32.763 75.302-89.443 132.056-56.68 56.754-132.447 89.964Q565.58 992 479.434 992Z"/>
</svg>