<svg xmlns="http://www.w3.org/2000/svg" height="48" viewBox="0 96 960 960" width="48" fill="red">
  <path d="M259 952q-29 0-51-22t-22-51V304h-11q-14.75 0-25.375-10.86Q139 282.281 139 267.14q0-15.14 10.613-25.64Q160.225 231 175 231h172q0-15 10.625-24.5T383 197h195q14.75 0 25.375 9.625T614 231h172q15.2 0 26.1 10.675 10.9 10.676 10.9 25.816 0 15.141-10.9 25.825T786 304h-11v575q0 29-22 51t-51 22H259Zm98-196q0 14.775 10.658 25.388Q378.316 792 393.158 792T419 781.388q11-10.613 11-25.388V426q0-15.2-10.95-26.1-10.951-10.9-26.225-10.9-14.85 0-25.338 10.9Q357 410.8 357 426v330Zm175 0q0 14.775 10.658 25.388Q553.316 792 568.158 792T594 781.388q11-10.613 11-25.388V426q0-15.2-10.95-26.1-10.951-10.9-26.225-10.9-14.85 0-25.338 10.9Q532 410.8 532 426v330Z"/>
</svg>